<mxfile host="app.diagrams.net" agent="Mozilla/5.0 (Windows NT 10.0; Win64; x64) AppleWebKit/537.36 (KHTML, like Gecko) Chrome/131.0.0.0 Safari/537.36" version="26.0.6">
  <diagram name="PÃ¡gina-1" id="YM_R-TEL_Zhc6yKXobAl">
    <mxGraphModel dx="1657" dy="1009" grid="1" gridSize="10" guides="1" tooltips="1" connect="1" arrows="1" fold="1" page="0" pageScale="1" pageWidth="827" pageHeight="1169" math="0" shadow="0">
      <root>
        <mxCell id="0" />
        <mxCell id="1" parent="0" />
        <mxCell id="iBgm3J5qL0E86COgkB-l-1" value="" style="rounded=0;whiteSpace=wrap;html=1;fillColor=none;dashed=1;" vertex="1" parent="1">
          <mxGeometry x="-80" width="200" height="480" as="geometry" />
        </mxCell>
        <mxCell id="iBgm3J5qL0E86COgkB-l-2" value="&lt;font style=&quot;font-size: 24px;&quot;&gt;Sources&lt;/font&gt;" style="rounded=1;whiteSpace=wrap;html=1;strokeColor=none;" vertex="1" parent="1">
          <mxGeometry x="-40" y="-20" width="120" height="40" as="geometry" />
        </mxCell>
        <mxCell id="iBgm3J5qL0E86COgkB-l-49" style="edgeStyle=orthogonalEdgeStyle;rounded=0;orthogonalLoop=1;jettySize=auto;html=1;entryX=0;entryY=0.5;entryDx=0;entryDy=0;" edge="1" parent="1" source="iBgm3J5qL0E86COgkB-l-3" target="iBgm3J5qL0E86COgkB-l-22">
          <mxGeometry relative="1" as="geometry" />
        </mxCell>
        <mxCell id="iBgm3J5qL0E86COgkB-l-50" style="edgeStyle=orthogonalEdgeStyle;rounded=0;orthogonalLoop=1;jettySize=auto;html=1;entryX=0;entryY=0.5;entryDx=0;entryDy=0;" edge="1" parent="1" source="iBgm3J5qL0E86COgkB-l-3" target="iBgm3J5qL0E86COgkB-l-24">
          <mxGeometry relative="1" as="geometry" />
        </mxCell>
        <mxCell id="iBgm3J5qL0E86COgkB-l-62" style="edgeStyle=orthogonalEdgeStyle;rounded=0;orthogonalLoop=1;jettySize=auto;html=1;entryX=0;entryY=0.5;entryDx=0;entryDy=0;" edge="1" parent="1" source="iBgm3J5qL0E86COgkB-l-3" target="iBgm3J5qL0E86COgkB-l-23">
          <mxGeometry relative="1" as="geometry" />
        </mxCell>
        <mxCell id="iBgm3J5qL0E86COgkB-l-3" value="&lt;font style=&quot;font-size: 20px;&quot;&gt;&lt;b style=&quot;&quot;&gt;CRM&lt;/b&gt;&lt;/font&gt;" style="image;aspect=fixed;html=1;points=[];align=center;fontSize=12;image=img/lib/azure2/general/Folder_Blank.svg;" vertex="1" parent="1">
          <mxGeometry x="-25" y="145.88" width="90" height="73.04" as="geometry" />
        </mxCell>
        <mxCell id="iBgm3J5qL0E86COgkB-l-51" style="edgeStyle=orthogonalEdgeStyle;rounded=0;orthogonalLoop=1;jettySize=auto;html=1;entryX=0;entryY=0.5;entryDx=0;entryDy=0;" edge="1" parent="1" source="iBgm3J5qL0E86COgkB-l-6" target="iBgm3J5qL0E86COgkB-l-19">
          <mxGeometry relative="1" as="geometry" />
        </mxCell>
        <mxCell id="iBgm3J5qL0E86COgkB-l-52" style="edgeStyle=orthogonalEdgeStyle;rounded=0;orthogonalLoop=1;jettySize=auto;html=1;entryX=0;entryY=0.5;entryDx=0;entryDy=0;" edge="1" parent="1" source="iBgm3J5qL0E86COgkB-l-6" target="iBgm3J5qL0E86COgkB-l-18">
          <mxGeometry relative="1" as="geometry" />
        </mxCell>
        <mxCell id="iBgm3J5qL0E86COgkB-l-53" style="edgeStyle=orthogonalEdgeStyle;rounded=0;orthogonalLoop=1;jettySize=auto;html=1;entryX=0;entryY=0.5;entryDx=0;entryDy=0;" edge="1" parent="1" source="iBgm3J5qL0E86COgkB-l-6" target="iBgm3J5qL0E86COgkB-l-20">
          <mxGeometry relative="1" as="geometry" />
        </mxCell>
        <mxCell id="iBgm3J5qL0E86COgkB-l-6" value="&lt;font style=&quot;font-size: 20px;&quot;&gt;&lt;b&gt;ERP&lt;/b&gt;&lt;/font&gt;" style="image;aspect=fixed;html=1;points=[];align=center;fontSize=12;image=img/lib/azure2/general/Folder_Blank.svg;" vertex="1" parent="1">
          <mxGeometry x="-25" y="320.6" width="90" height="73.04" as="geometry" />
        </mxCell>
        <mxCell id="iBgm3J5qL0E86COgkB-l-25" value="" style="group" vertex="1" connectable="0" parent="1">
          <mxGeometry x="200" width="210" height="480" as="geometry" />
        </mxCell>
        <mxCell id="iBgm3J5qL0E86COgkB-l-7" value="" style="rounded=1;whiteSpace=wrap;html=1;fillColor=none;dashed=1;" vertex="1" parent="iBgm3J5qL0E86COgkB-l-25">
          <mxGeometry y="57.599999999999994" width="210" height="422.4" as="geometry" />
        </mxCell>
        <mxCell id="iBgm3J5qL0E86COgkB-l-9" value="&lt;font style=&quot;font-size: 20px;&quot;&gt;&lt;b style=&quot;&quot;&gt;Bronze Layer&lt;/b&gt;&lt;/font&gt;" style="rounded=1;whiteSpace=wrap;html=1;fillColor=#ffe6cc;strokeColor=#d79b00;" vertex="1" parent="iBgm3J5qL0E86COgkB-l-25">
          <mxGeometry width="210" height="48" as="geometry" />
        </mxCell>
        <mxCell id="iBgm3J5qL0E86COgkB-l-17" value="" style="group" vertex="1" connectable="0" parent="iBgm3J5qL0E86COgkB-l-25">
          <mxGeometry y="289.92" width="210" height="134.4" as="geometry" />
        </mxCell>
        <mxCell id="iBgm3J5qL0E86COgkB-l-18" value="&lt;font style=&quot;font-size: 16px;&quot;&gt;&lt;b style=&quot;&quot;&gt;erp_cust_az12&lt;/b&gt;&lt;/font&gt;" style="rounded=1;whiteSpace=wrap;html=1;fillColor=#ffe6cc;strokeColor=#d79b00;" vertex="1" parent="iBgm3J5qL0E86COgkB-l-17">
          <mxGeometry width="210" height="39.529411764705884" as="geometry" />
        </mxCell>
        <mxCell id="iBgm3J5qL0E86COgkB-l-19" value="&lt;font style=&quot;font-size: 16px;&quot;&gt;&lt;b style=&quot;&quot;&gt;erp_loc_a101&lt;/b&gt;&lt;/font&gt;" style="rounded=1;whiteSpace=wrap;html=1;fillColor=#ffe6cc;strokeColor=#d79b00;" vertex="1" parent="iBgm3J5qL0E86COgkB-l-17">
          <mxGeometry y="47.43529411764706" width="210" height="39.529411764705884" as="geometry" />
        </mxCell>
        <mxCell id="iBgm3J5qL0E86COgkB-l-20" value="&lt;font style=&quot;font-size: 16px;&quot;&gt;&lt;b style=&quot;&quot;&gt;erp_px_cat_g12&lt;/b&gt;&lt;/font&gt;" style="rounded=1;whiteSpace=wrap;html=1;fillColor=#ffe6cc;strokeColor=#d79b00;" vertex="1" parent="iBgm3J5qL0E86COgkB-l-17">
          <mxGeometry y="94.87058823529412" width="210" height="39.529411764705884" as="geometry" />
        </mxCell>
        <mxCell id="iBgm3J5qL0E86COgkB-l-21" value="" style="group" vertex="1" connectable="0" parent="iBgm3J5qL0E86COgkB-l-25">
          <mxGeometry y="115.19999999999999" width="210" height="134.4" as="geometry" />
        </mxCell>
        <mxCell id="iBgm3J5qL0E86COgkB-l-22" value="&lt;font style=&quot;font-size: 16px;&quot;&gt;&lt;b style=&quot;&quot;&gt;crm_sales_details&lt;/b&gt;&lt;/font&gt;" style="rounded=1;whiteSpace=wrap;html=1;fillColor=#ffe6cc;strokeColor=#d79b00;" vertex="1" parent="iBgm3J5qL0E86COgkB-l-21">
          <mxGeometry width="210" height="39.529411764705884" as="geometry" />
        </mxCell>
        <mxCell id="iBgm3J5qL0E86COgkB-l-23" value="&lt;b style=&quot;font-size: 16px;&quot;&gt;crm_cust_info&lt;/b&gt;" style="rounded=1;whiteSpace=wrap;html=1;fillColor=#ffe6cc;strokeColor=#d79b00;" vertex="1" parent="iBgm3J5qL0E86COgkB-l-21">
          <mxGeometry y="47.43529411764706" width="210" height="39.529411764705884" as="geometry" />
        </mxCell>
        <mxCell id="iBgm3J5qL0E86COgkB-l-24" value="&lt;b style=&quot;font-size: 16px;&quot;&gt;crm_prd_info&lt;/b&gt;" style="rounded=1;whiteSpace=wrap;html=1;fillColor=#ffe6cc;strokeColor=#d79b00;" vertex="1" parent="iBgm3J5qL0E86COgkB-l-21">
          <mxGeometry y="94.87058823529412" width="210" height="39.529411764705884" as="geometry" />
        </mxCell>
      </root>
    </mxGraphModel>
  </diagram>
</mxfile>
